# xmcd CD database file
#
# Track frame offsets:
#	150
#	16846
#	28928
#	41548
#	52521
#	63806
#	74272
#	97253
#	108605
#	129654
#	141086
#	156081
#	167856
#	180663
#
# Disc length: 2605 seconds
#
# Revision: 0
# Processed by: cddbd v1.5.1PL0 Copyright (c) Steve Scherf et al.
# Submitted via: Feurio! 1.67 - http://www.feurio.com
#
DISCID=bc0a2b0e
DTITLE=Johnny Cash - American II (Unchained)
DYEAR=1900
DGENRE=
TTITLE0=Rowboat
TTITLE1=Sea of Heartbreak
TTITLE2=Rusty Cage
TTITLE3=The One Rose
TTITLE4=Country Boy
TTITLE5=Memories are made of this
TTITLE6=Spiritual
TTITLE7=Kneeling Drunkards Plea
TTITLE8=Southern Accents
TTITLE9=Mean Eyed Cat
TTITLE10=Meet me in Heaven
TTITLE11=I never Picked Cotton
TTITLE12=Unchained
TTITLE13=I've been everywhere
EXTD=
EXTT0=
EXTT1=
EXTT2=
EXTT3=
EXTT4=
EXTT5=
EXTT6=
EXTT7=
EXTT8=
EXTT9=
EXTT10=
EXTT11=
EXTT12=
EXTT13=
PLAYORDER=
